<?xml version="1.0" standalone="no"?><!DOCTYPE svg PUBLIC "-//W3C//DTD SVG 1.1//EN" "http://www.w3.org/Graphics/SVG/1.1/DTD/svg11.dtd"><svg t="1535722087426" class="icon" style="" viewBox="0 0 1024 1024" version="1.1" xmlns="http://www.w3.org/2000/svg" p-id="2322" xmlns:xlink="http://www.w3.org/1999/xlink" width="200" height="200"><defs><style type="text/css"></style></defs><path d="M272 992h-96c-44.1 0-80-35.9-80-80V336c0-44.1 35.9-80 80-80h96c44.1 0 80 35.9 80 80v576c0 44.1-35.9 80-80 80z m-96-672c-8.7 0-16 7.3-16 16v576c0 8.7 7.3 16 16 16h96c8.7 0 16-7.3 16-16V336c0-8.7-7.3-16-16-16h-96zM845.8 992h-91.5c-45.3 0-82.2-36.9-82.2-82.2V274.2c0-45.3 36.9-82.2 82.2-82.2h91.5c45.3 0 82.2 36.9 82.2 82.2v635.5c0 45.4-36.9 82.3-82.2 82.3z m-91.6-736c-9.9 0-18.2 8.3-18.2 18.2v635.5c0 9.9 8.3 18.2 18.2 18.2h91.5c9.9 0 18.2-8.3 18.2-18.2V274.2c0-9.9-8.3-18.2-18.2-18.2h-91.5z" fill="#243154" p-id="2323"></path><path d="M625.6 992H398.4C337.5 992 288 942.5 288 881.6V142.4C288 81.5 337.5 32 398.4 32h227.2C686.5 32 736 81.5 736 142.4v739.2c0 60.9-49.5 110.4-110.4 110.4zM398.4 96c-25.6 0-46.4 20.8-46.4 46.4v739.2c0 25.6 20.8 46.4 46.4 46.4h227.2c25.6 0 46.4-20.8 46.4-46.4V142.4c0-25.6-20.8-46.4-46.4-46.4H398.4z" fill="#243154" p-id="2324"></path></svg>