<?xml version="1.0" standalone="no"?><!DOCTYPE svg PUBLIC "-//W3C//DTD SVG 1.1//EN" "http://www.w3.org/Graphics/SVG/1.1/DTD/svg11.dtd"><svg t="1535810142709" class="icon" style="" viewBox="0 0 1024 1024" version="1.1" xmlns="http://www.w3.org/2000/svg" p-id="1905" xmlns:xlink="http://www.w3.org/1999/xlink" width="200" height="200"><defs><style type="text/css"></style></defs><path d="M139.5712 407.92064l3.26144 0c47.57504-166.57408 198.33856-288.62976 376.83712-288.62976 177.88416 0 328.29952 121.43104 376.36096 287.24224l0.62464-0.20992c3.95264 8.73984 12.41088 14.90944 22.26176 14.90944 13.66528 0 24.68864-11.65312 24.68864-25.9328 0-2.6368-0.55808-5.13024-1.24928-7.49056l0 0c-0.07168-0.07168-0.13824-0.20992-0.13824-0.34816-0.20992-0.90112-0.41472-1.59744-0.75776-2.49856-56.10496-183.14752-223.7184-316.16-421.9136-316.16-201.74336 0-371.78368 137.86624-424.83712 326.28736L32.3584 377.0624l49.58208 150.8352 126.2848-100.28032L139.5712 407.92064 139.5712 407.92064 139.5712 407.92064zM1003.24352 666.17344l-49.5872-150.8352-126.14656 100.352 67.6864 19.48672c-48.75264 164.36224-198.54336 284.68224-375.53152 284.68224-176.55808 0-325.93408-119.76704-375.10656-283.63776l-0.2048 0c-2.98496-10.60864-12.416-18.72384-23.78752-18.72384-13.66016 0-24.76032 11.58656-24.76032 25.87136 0 1.53088 0.13824 3.05664 0.4864 4.37248l-0.4864 0.27648c54.23104 186.48064 223.37024 322.33472 423.6544 322.33472 200.1408 0 369.0752-135.57248 423.51616-321.50016L1003.24352 666.17344 1003.24352 666.17344 1003.24352 666.17344z" p-id="1906"></path></svg>