<?xml version="1.0" standalone="no"?><!DOCTYPE svg PUBLIC "-//W3C//DTD SVG 1.1//EN" "http://www.w3.org/Graphics/SVG/1.1/DTD/svg11.dtd"><svg t="1535741106170" class="icon" style="" viewBox="0 0 1024 1024" version="1.1" xmlns="http://www.w3.org/2000/svg" p-id="1430" xmlns:xlink="http://www.w3.org/1999/xlink" width="200" height="200"><defs><style type="text/css"></style></defs><path d="M511.449 60.377c-247.003 0-447.237 200.215-447.237 447.237 0 247.02 200.234 447.237 447.237 447.237 247.022 0 447.237-200.217 447.237-447.237 0-247.022-200.215-447.237-447.237-447.237z m315.209 709.034c-40.872-17.07-137.376-50.555-197.084-68.189-5.113-1.601-5.896-1.856-5.896-23.057 0-17.506 7.188-35.14 14.213-50.063 7.624-16.214 16.65-43.475 19.872-67.933 9.081-10.519 21.419-31.264 29.335-70.809 6.969-34.849 3.712-47.534-0.893-59.436-0.49-1.254-1.001-2.491-1.345-3.731-1.748-8.17 0.637-50.627 6.606-83.564 4.13-22.602-1.038-70.663-32.156-110.427-19.654-25.131-57.271-55.977-125.949-60.273l-37.67 0.037c-67.514 4.258-105.13 35.104-124.785 60.235-31.118 39.763-36.286 87.824-32.173 110.408 5.986 32.956 8.371 75.413 6.66 83.421-0.382 1.401-0.893 2.639-1.383 3.893-4.605 11.902-7.862 24.587-0.893 59.436 7.916 39.545 20.254 60.289 29.335 70.809 3.222 24.458 12.249 51.719 19.872 67.933 5.587 11.865 8.19 28.006 8.19 50.827 0 21.201-0.783 21.456-5.568 22.967-61.765 18.234-160.072 53.756-196.723 69.808-60.289-71.392-96.741-163.547-96.741-264.092 0-226.058 183.911-409.967 409.967-409.967 226.058 0 409.967 183.909 409.967 409.967 0 99.455-35.631 190.736-94.758 261.8z" p-id="1431"></path></svg>